<?xml version="1.0" encoding="utf-8"?>
<!-- Generator: Adobe Illustrator 19.2.1, SVG Export Plug-In . SVG Version: 6.00 Build 0)  -->
<svg version="1.1" id="Layer_1" xmlns="http://www.w3.org/2000/svg" xmlns:xlink="http://www.w3.org/1999/xlink" x="0px" y="0px"
	 viewBox="0 0 27 27" style="enable-background:new 0 0 27 27;" xml:space="preserve">
<style type="text/css">
	.st0{fill:#2E436C;}
	.st1{enable-background:new    ;}
	.st2{fill:#FFFFFF;}
</style>
<title>Group Copy</title>
<desc>Created with Sketch.</desc>
<circle id="Oval-1" class="st0" cx="13.5" cy="13.5" r="13.5"/>
<g class="st1">
	<path class="st2" d="M9.7,17.5c0.7-0.7,1.4-1.3,2-1.9c0.6-0.6,1.1-1.2,1.6-1.7c0.4-0.5,0.8-1,1-1.5c0.2-0.5,0.4-0.9,0.4-1.3
		c0-0.6-0.1-1-0.4-1.3S13.5,9.4,13,9.4c-0.4,0-0.8,0.1-1.1,0.4c-0.3,0.2-0.6,0.5-0.9,0.8L9.5,9.2c0.6-0.6,1.1-1.1,1.7-1.4
		c0.6-0.3,1.3-0.5,2.1-0.5c0.6,0,1.1,0.1,1.5,0.3s0.9,0.4,1.2,0.7c0.3,0.3,0.6,0.7,0.8,1.1c0.2,0.4,0.3,0.9,0.3,1.5
		c0,0.5-0.1,1-0.3,1.5c-0.2,0.5-0.5,1-0.8,1.5s-0.7,1-1.2,1.5c-0.4,0.5-0.9,1-1.4,1.5c0.3,0,0.6-0.1,1-0.1c0.4,0,0.7,0,0.9,0h2.3V19
		h-8V17.5z"/>
</g>
</svg>
