<?xml version="1.0" encoding="UTF-8" standalone="no"?>
<svg width="13px" height="13px" viewBox="0 0 13 13" version="1.1" xmlns="http://www.w3.org/2000/svg" xmlns:xlink="http://www.w3.org/1999/xlink">
    <!-- Generator: Sketch 3.7.2 (28276) - http://www.bohemiancoding.com/sketch -->
    <title>check-box-outline</title>
    <desc>Created with Sketch.</desc>
    <defs></defs>
    <g id="Visual-Design" stroke="none" stroke-width="1" fill="none" fill-rule="evenodd">
        <g id="Letter-Form" transform="translate(-131.000000, -2193.000000)" fill="#FFCB14">
            <g id="check-box-outline" transform="translate(131.000000, 2193.000000)">
                <path d="M3.53888889,5.12777778 L2.52777778,6.13888889 L5.77777778,9.38888889 L13,2.16666667 L11.9888889,1.15555556 L5.77777778,7.36666667 L3.53888889,5.12777778 L3.53888889,5.12777778 Z M11.5555556,11.5555556 L1.44444444,11.5555556 L1.44444444,1.44444444 L8.66666667,1.44444444 L8.66666667,0 L1.44444444,0 C0.65,0 0,0.65 0,1.44444444 L0,11.5555556 C0,12.35 0.65,13 1.44444444,13 L11.5555556,13 C12.35,13 13,12.35 13,11.5555556 L13,5.77777778 L11.5555556,5.77777778 L11.5555556,11.5555556 L11.5555556,11.5555556 Z" id="Shape"></path>
            </g>
        </g>
    </g>
</svg>