<?xml version="1.0" encoding="UTF-8" standalone="no"?>
<svg width="20px" height="20px" viewBox="0 0 20 20" version="1.1" xmlns="http://www.w3.org/2000/svg" xmlns:xlink="http://www.w3.org/1999/xlink">
    <!-- Generator: Sketch 3.7.2 (28276) - http://www.bohemiancoding.com/sketch -->
    <title>Group 3</title>
    <desc>Created with Sketch.</desc>
    <defs></defs>
    <g id="Visual-Design" stroke="none" stroke-width="1" fill="none" fill-rule="evenodd">
        <g id="Letter-Form" transform="translate(-536.000000, -2410.000000)">
            <g id="Group-3" transform="translate(536.000000, 2410.000000)">
                <g id="post-twitter-copy" fill="#818181">
                    <path d="M18,0 L2,0 C0.9,0 0,0.9 0,2 L0,18 C0,19.1 0.9,20 2,20 L18,20 C19.1,20 20,19.1 20,18 L20,2 C20,0.9 19.1,0 18,0 L18,0 Z M15.7,7.3 C15.6,11.9 12.7,15.1 8.3,15.3 C6.5,15.4 5.2,14.8 4,14.1 C5.3,14.3 7,13.8 7.9,13 C6.6,12.9 5.8,12.2 5.4,11.1 C5.8,11.2 6.2,11.1 6.5,11.1 C5.3,10.7 4.5,10 4.4,8.4 C4.7,8.6 5.1,8.7 5.5,8.7 C4.6,8.2 4,6.3 4.7,5.1 C6,6.5 7.6,7.7 10.2,7.9 C9.5,5.1 13.3,3.6 14.8,5.5 C15.5,5.4 16,5.1 16.5,4.9 C16.3,5.6 15.9,6 15.4,6.4 C15.9,6.3 16.4,6.2 16.8,6 C16.7,6.5 16.2,6.9 15.7,7.3 L15.7,7.3 Z" id="Shape"></path>
                </g>
                <rect id="Rectangle-17" fill="#818181" x="3" y="3" width="15" height="14"></rect>
                <g id="video-youtube" transform="translate(4.000000, 5.000000)" fill="#FFFFFF">
                    <path d="M11.7,0.25 C11.31,0.125 8.905,0 6.5,0 C4.095,0 1.69,0.125 1.3,0.25 C0.26,0.5625 0,2.75 0,5 C0,7.25 0.26,9.4375 1.3,9.75 C1.69,9.875 4.095,10 6.5,10 C8.905,10 11.31,9.875 11.7,9.75 C12.74,9.4375 13,7.25 13,5 C13,2.75 12.74,0.5625 11.7,0.25 L11.7,0.25 Z M5.2,7.8125 L5.2,2.1875 L9.1,5 L5.2,7.8125 L5.2,7.8125 Z" id="Shape"></path>
                </g>
            </g>
        </g>
    </g>
</svg>